<?xml version="1.0" encoding="UTF-8" standalone="no"?>
<svg
   xmlns:dc="http://purl.org/dc/elements/1.1/"
   xmlns:cc="http://creativecommons.org/ns#"
   xmlns:rdf="http://www.w3.org/1999/02/22-rdf-syntax-ns#"
   xmlns:svg="http://www.w3.org/2000/svg"
   xmlns="http://www.w3.org/2000/svg"
   id="svg29"
   version="1.1"
   fill="none"
   viewBox="0 0 660 263.28885"
   height="263.28885"
   width="660">
  <metadata
     id="metadata33">
    <rdf:RDF>
      <cc:Work
         rdf:about="">
        <dc:format>image/svg+xml</dc:format>
        <dc:type
           rdf:resource="http://purl.org/dc/dcmitype/StillImage" />
        <dc:title></dc:title>
      </cc:Work>
    </rdf:RDF>
  </metadata>
  <g
     transform="matrix(6.3157895,0,0,6.3157895,27.372531,30)"
     id="g22"
     clip-path="url(#clip0)">
    <path
       id="path2"
       fill="#cd001a"
       d="m 45.0409,23.7133 c -0.028,-0.3974 -0.0764,-0.6427 -0.1029,-1.335 -0.4777,0.3492 -1.0228,0.5963 -1.6011,0.7256 -0.5782,0.1293 -1.1771,0.138 -1.7589,0.0257 -1.5592,-0.2561 -3.0762,-1.515 -2.9624,-4.1493 0.0546,-1.2869 0.4303,-2.9076 2.0347,-3.5704 1.832,-0.7762 3.6687,-1.2046 4.5621,-1.4499 0.0452,-1.0664 -0.0779,-1.1751 -0.4771,-1.411 -0.6798,-0.3431 -2.596,-0.2655 -4.5387,0.6519 l -0.2791,-2.9556 c 0,0 5.2622,-1.50265 7.2735,0.2189 1.0914,0.9314 1.2551,2.1593 1.1772,3.6433 -0.1419,2.6871 -0.396,9.5313 -0.396,9.5313 z m -1.9988,-6.6238 c -0.6736,0.2546 -1.3503,0.6722 -1.4563,1.5989 -0.106,0.9268 0.237,1.8783 0.9838,2.018 0.7469,0.1398 2.1486,-0.6954 2.4386,-1.1704 0.028,-0.8724 0.0904,-2.4527 0.1154,-3.1404 0,0 -1.6309,0.4983 -2.0815,0.6986" />
    <path
       id="path4"
       fill="#cd001a"
       d="M 75.3807,26.5572 C 75.7456,16.256 76.9789,4.24249 76.9789,4.24249 l -4.2487,0.23285 c 0,0 -0.0452,6.11616 -0.3664,21.79316 z" />
    <path
       id="path6"
       fill="#cd001a"
       d="m 31.116,31.0014 c -2.1594,0.2375 -3.8979,-0.2468 -4.7508,-0.7327 l 1.0353,-2.8997 c 1.2957,0.9717 5.164,1.2248 6.4534,-1.9497 C 35.1106,21.7884 32.4148,9.94722 32.4148,9.94722 l 4.2098,-0.40205 c 0,0 0.9448,10.37423 0.9043,12.83313 -0.0406,2.4588 -0.3119,3.7519 -0.8903,4.8758 -0.5433,1.0254 -1.3303,1.9029 -2.2923,2.5561 -0.9621,0.6531 -2.07,1.0621 -3.2272,1.1912" />
    <path
       id="path8"
       fill="#cd001a"
       d="m 32.9355,0 1.6247,2.81747 3.2524,-0.42378 -1.7353,2.59859 1.45,3.41202 -3.491,-1.64857 -2.978,1.69514 0.5332,-3.0022 -2.4634,-1.69669 2.9265,-0.5666 z" />
    <path
       id="path10"
       fill="#cd001a"
       d="m 53.2203,24.5394 c 0,0 -0.0124,-5.7219 0.1981,-9.862 0.6938,-0.3912 1.6402,-0.7404 2.4806,-0.697 0.8404,0.0435 0.8794,1.0199 0.7609,2.2074 -0.1029,0.7638 -0.9168,8.1016 -0.9168,8.1016 l 3.5065,0.4052 c 0,0 0.5005,-5.6567 0.764,-8.7722 0.2635,-3.1155 -0.6533,-4.5017 -2.5196,-4.6073 -1.8663,-0.1056 -3.3678,0.4657 -4.0039,0.846 l 0.0561,-1.661 -3.834,0.1847 c 0,0 0.4912,5.7157 0.1949,13.8546 z" />
    <path
       id="path12"
       fill="#cd001a"
       d="M 21.9933,22.5257 C 21.669,22.0601 20.6135,20.3649 20.325,17.6903 20.2002,16.6369 20.1882,15.5732 20.2892,14.5173 19.3256,13.6682 17.9863,13.0705 16.2228,12.8408 18.6146,10.5666 19.5252,7.86092 18.9202,5.6799 17.5668,0.488918 12.0365,0.833535 7.93588,2.27254 4.31393,3.60133 0.416016,5.99192 0.416016,5.99192 L 2.51777,10.5294 3.77914,9.95035 11.9538,32.1874 c 0,0 0.9761,-0.3104 2.2983,-0.7761 3.9602,-1.4421 7.657,-3.5362 8.3056,-8.1591 -0.2058,-0.2452 -0.396,-0.4889 -0.5644,-0.7265 z M 10.2622,13.4415 8.54707,7.99131 c 0,0 0.67356,-0.34306 1.75563,-0.77616 1.3643,-0.54176 2.61,-0.40671 3.1183,0.74046 0.8513,2.10499 -0.2292,4.33099 -2.4229,5.20499 -0.2916,0.1133 -0.7359,0.2809 -0.7359,0.2809 z m 5.6301,12.9961 c -0.3118,0.2499 -1.3627,0.6427 -1.3627,0.6427 l -2.9125,-9.1991 0.8045,-0.2608 c 2.8252,-0.919 5.0127,0.3105 5.5647,2.7616 0.7187,2.6514 -0.0172,4.9814 -2.094,6.0556 z" />
    <path
       id="path14"
       fill="#cd001a"
       d="M 32.3789,15.871 V 15.8555 C 31.6944,11.5648 29.443,9.31395 26.0424,9.52662 c -0.7873,0.04812 -2.2763,0.32444 -3.3911,1.63928 -1.2006,1.4173 -1.6481,3.6355 -1.3284,6.5943 0.2136,1.9792 0.9277,3.6014 1.5279,4.4645 1.2474,1.7618 2.7535,2.6529 4.4686,2.6529 0.1029,0 0.2074,0 0.3118,-0.0093 1.054,-0.0652 2.5789,-0.2981 3.6407,-1.5756 1.1974,-1.4406 1.5607,-3.8684 1.107,-7.4217 z m -7.431,1.0866 c -0.4023,-3.7116 0.7656,-3.7846 1.1507,-3.8078 1.0509,-0.0637 2.2873,0.9158 2.6053,3.8606 0.2682,2.4837 -0.2229,4.1276 -1.2473,4.1913 -1.2193,0.0652 -2.2795,-2.1407 -2.5071,-4.2503 z" />
    <path
       id="path16"
       fill="#cd001a"
       d="m 67.8625,29.2102 c -1.5717,1.0105 -4.1225,1.2418 -6.0013,0.655 0.156,-0.7078 0.6081,-2.6731 0.6081,-2.6731 1.871,0.4362 3.3475,0.2158 4.1287,-0.6131 0.7484,-0.7917 0.7687,-1.5679 0.831,-2.077 0.025,-0.1987 0.0406,-0.3943 0.0452,-0.5558 -0.6626,0.652 -2.0004,0.9081 -2.8766,0.8507 -0.8763,-0.0574 -1.9646,-0.3182 -2.6257,-1.543 -0.6611,-1.2248 -0.9698,-2.9339 -0.8902,-5.3183 0.1559,-4.5173 1.372,-7.0615 3.9883,-6.973 1.8086,0.0621 2.8985,0.6209 2.8985,0.6209 l 0.0686,-1.4934 3.4426,0.5713 c 0,0 -0.4147,3.8948 -0.6673,7.8982 -0.1387,2.209 -0.2635,4.1479 -0.41,6.0696 -0.1856,2.4248 -0.9776,3.5766 -2.5399,4.581 z M 67.7954,14.3513 c -0.4594,-0.1815 -0.9467,-0.2828 -1.4406,-0.2996 -1.355,-0.045 -1.8477,0.5045 -1.9319,3.0457 -0.1325,3.9537 0.552,4.9255 1.3721,4.9534 0.5676,0.0187 1.1819,-0.2126 1.7416,-0.8848 0.0748,-0.3757 0.106,-2.2416 0.1559,-3.6231 z" />
    <path
       id="path18"
       fill="#cd001a"
       d="m 87.8026,23.465 c 0.1559,-0.7762 0.3274,-2.0056 0.4537,-3.0488 1.9442,0.9826 3.243,0.4331 3.3537,-0.5992 0.1076,-1.1099 -0.3118,-1.4468 -1.7852,-2.6809 -1.2473,-1.0276 -2.6506,-1.9528 -2.5695,-4.0966 0.0437,-2.5846 2.7971,-5.31822 7.9751,-3.32659 -0.2401,0.97179 -0.7656,3.08909 -0.7656,3.08909 0,0 -1.4515,-0.8631 -2.3574,-0.9314 -1.4032,-0.0978 -1.7369,0.9004 -1.5763,1.3444 0.1606,0.4439 0.421,0.714 1.0259,1.189 0.9355,0.6396 5.2123,3.5161 3.4301,7.1811 -1.3985,2.9634 -5.4149,2.6948 -7.1845,1.8799 z" />
    <path
       id="path20"
       fill="#cd001a"
       d="m 82.6574,26.0356 c -1.5717,0.0823 -3.1355,-0.5184 -3.9868,-1.529 -1.1601,-1.3785 -1.6886,-3.3359 -1.6886,-5.5961 0,-5.8073 2.6007,-7.0041 5.4867,-7.1268 3.3023,-0.1412 4.1988,2.9324 4.4296,7.2789 -2.6818,0.4657 -5.8765,0.9019 -6.6748,1.009 0.0343,1.0509 0.3212,1.6005 0.764,2.1655 0.2838,0.3772 0.7952,0.6737 1.8258,0.7948 1.0306,0.1211 2.0565,-0.3105 2.8501,-0.7218 0.3836,0.8258 1.0462,2.3579 1.0462,2.3579 -1.1968,0.822 -2.6001,1.2956 -4.0522,1.3676 z M 81.9744,14.373 c -0.9152,0 -1.9489,1.4064 -1.8179,3.2226 0.2557,0.0078 3.0341,-0.4129 3.3865,-0.4765 -0.1637,-1.5353 -0.5286,-2.7461 -1.5686,-2.7461 z" />
  </g>
  <defs
     id="defs27">
    <clipPath
       id="clip0">
      <rect
         y="0"
         x="0"
         id="rect24"
         transform="translate(0.416016)"
         fill="#ffffff"
         height="32.1875"
         width="95" />
    </clipPath>
  </defs>
</svg>
