<svg xmlns="http://www.w3.org/2000/svg" xmlns:svg="http://www.w3.org/2000/svg" id="svg20" width="700" height="270.516" version="1.1"><metadata id="metadata26"/><style id="style2" type="text/css">.st0{fill:#000}</style><g id="g7" transform="translate(25.388207,27.602367)"><title id="title4">background</title><rect id="canvas_background" width="160.9" height="63.1" x="-1" y="-1" fill="none"/></g><g id="g18" transform="matrix(4.397979,0,0,4.397979,-0.4765048,9.2613228)"><title id="title9">Layer 1</title><g id="svg_1"><path id="svg_2" fill="#fff" d="m 66.8,8.9 c 2.5,0.1 4.2,0.6 4.9,1.2 0.7,0.6 1.1,2.2 1.1,4.5 v 28.1 c 0,2.4 -0.4,3.9 -1.1,4.5 -0.7,0.6 -2.4,1 -4.9,1.1 v 1.2 H 85.2 V 48.3 C 82.7,48.2 81.1,47.8 80.3,47.2 79.6,46.6 79.2,45.1 79.2,42.7 V 14.6 c 0,-2.3 0.4,-3.9 1.1,-4.5 C 81.1,9.5 82.7,9 85.2,8.9 V 7.8 H 66.8 Z" class="st0"/><path id="svg_3" fill="#fff" d="m 123.9,47.4 c -0.7,-0.5 -1.6,-1.1 -2.4,-2.1 l -12.7,-16 c 3.5,-0.6 6.1,-1.7 8.2,-3.4 2,-1.7 3,-4 3,-7.2 0,-4.6 -2.3,-7.9 -6.7,-9.6 -2.4,-1 -5.4,-1.3 -9,-1.3 H 86.9 v 1.1 c 2.3,0.2 3.7,0.6 4.3,1.3 0.7,0.7 1.1,2.1 1.1,4.4 v 27.2 c 0,2.7 -0.4,4.4 -1,5.1 -0.6,0.6 -2,1.1 -4.4,1.3 v 1.2 h 17.3 V 48.2 C 101.8,48.1 100.4,47.6 99.6,47 98.9,46.4 98.5,44.9 98.5,42.6 V 30.2 l 3.5,-0.1 14.8,19.4 h 8.9 l -0.2,-1.4 C 125,48 124.4,47.8 123.9,47.4 Z M 98.6,27.9 V 12.3 c 0,-1 0.2,-1.5 0.6,-1.7 0.4,-0.4 1.4,-0.5 3.2,-0.5 2.6,0 4.7,0.4 6.3,1.1 3,1.3 4.4,3.9 4.4,7.5 0,3.9 -1.7,6.5 -4.9,7.8 -1.9,0.7 -5.2,1.2 -9.6,1.4 z" class="st0"/><path id="svg_4" fill="#fff" d="m 150,32.3 c -1.4,-1.8 -3.8,-3.8 -7.2,-6 L 137.3,23 c -2,-1.3 -3.5,-2.6 -4.5,-3.8 -1,-1.1 -1.4,-2.4 -1.4,-4.2 0,-1.7 0.6,-3.2 1.8,-4.2 1.3,-1.1 2.8,-1.6 4.4,-1.6 2.2,0 4.5,0.9 6.6,2.4 2.3,1.6 4,4.4 4.9,8.4 h 1.4 L 149.2,6.6 h -1.3 c -0.1,0.7 -0.4,1.2 -0.6,1.6 -0.4,0.4 -0.8,0.6 -1.7,0.6 -0.2,0 -1.3,-0.4 -3.4,-1.1 -2,-0.7 -3.7,-1.1 -5.1,-1.1 -3.5,0 -6.3,1.1 -8.3,3.2 -2.2,2.2 -3.1,4.8 -3.1,7.9 0,2.4 0.8,4.6 2.6,6.6 0.8,1.1 2.2,2.1 3.7,3.2 l 5.3,3.3 c 3.1,2 5.2,3.4 6,4.4 1.6,1.5 2.3,3.3 2.3,5.4 0,2.3 -0.7,4 -2.3,5.4 -1.3,1.2 -3.1,1.8 -5.1,1.8 -3.7,0 -6.7,-1.5 -9.3,-4.4 -1.3,-1.7 -2.6,-3.9 -3.6,-6.7 h -1.4 l 1.5,11.3 c 0.4,0.1 0.8,0.2 1.3,0.2 v 1.2 h -1.1 l 0.1,0.7 h 1.4 c 0,-0.6 0.2,-1.1 0.5,-1.5 0.2,-0.5 0.7,-0.7 1.4,-0.7 0.2,0 1.4,0.4 3.6,1.1 2,0.7 4.1,1.1 6,1.1 3.8,0 7,-1.1 9.4,-3.3 2.5,-2.2 3.7,-5 3.7,-8.3 0.3,-2.3 -0.4,-4.4 -1.7,-6.2 z" class="st0"/><path id="svg_5" fill="#fff" d="m 126.9,48.3 c -0.5,0 -0.9,-0.1 -1.3,-0.2 l 0.2,1.4 h 1.1 z" class="st0"/><path id="svg_6" fill="#fff" d="m 57,11.4 c -0.6,-1 -6.7,-3.9 -15.6,-5.7 -3.6,4 -3.6,5.6 -3.7,6.2 -0.1,0.6 1.2,2.3 2.5,4 2.4,3.2 3.1,3.8 3.5,4.8 0.7,1.7 -0.5,5.9 -1.3,9.6 0,-0.1 -2.2,-8.1 -3.1,-13.2 -0.1,-0.5 0,-0.7 0,-0.7 -5.4,-0.5 -9.1,-0.7 -9.7,2.1 -2.5,0 -3.7,0.7 -4,1.2 -0.6,1.1 0.1,3.3 0.6,4.4 0.4,-0.9 2.5,-0.7 3.2,-0.7 0.4,0.1 0.4,0.2 0.5,0.5 v 10.7 h -6.5 l -5.5,15.1 c 2.5,1.2 5.3,2.2 7,2.2 1.7,0 5.9,-2.2 6.5,-2.2 0.5,0 4.7,2.2 6.4,2.2 1.7,0 4.4,-0.9 7,-2.2 L 39.3,34.6 c 0,0 -5.7,0 -6.5,0 0,-2.4 0,-7.8 0,-10.3 -0.1,-0.6 -0.4,-0.9 -0.6,-0.9 l 3.2,-0.1 c -0.5,-1.8 -1.1,-3.2 -2,-3.3 0.2,-0.4 0.5,-0.6 0.8,-0.9 h -2.5 c 0.2,-1.3 3.5,-0.9 4.9,-0.7 1.4,7.2 4.2,17 4.3,17.1 0.1,0.1 2.4,1 2.6,1.1 1.3,-2.9 3.4,-11.5 3.5,-13.6 1.7,0.6 1.1,2.8 0.7,5.1 -1.9,11.7 -3.5,15.3 -3.8,17.5 1.7,-0.4 2.6,-0.7 2.9,-0.9 0.2,-0.4 1,-2.3 1.7,-4.5 C 49.5,37 51,29 51,25.8 c 0,-0.7 -0.7,-1.6 -1.8,-2.1 0,0 0.6,-1 0.8,-1.7 0.4,-0.7 0.7,-2.2 0.7,-2.2 0.7,0.2 1.2,0.5 1.3,1.2 0.4,3.1 0.2,3.3 -0.2,9 0,1.7 -0.7,5.4 -1.3,9.2 -1.2,6.8 -2.4,9.8 -2.4,10.9 1.8,-0.6 3.2,-1.1 3.4,-1.3 0.1,-0.2 1.4,-3.5 2.4,-8.6 0.4,-2.2 0.6,-4.3 1,-6.5 0.5,-2.9 0.6,-6 0.6,-8.4 0,-3.7 0.5,-3.7 -2.3,-5.1 1.1,-2.9 0.8,-4.9 0.6,-5.5 -0.5,-1 -1,-1 -3.4,-0.9 0.8,0.9 0.6,2.4 0.4,3.4 -0.5,-0.4 -0.2,-1.1 -2.8,-1 -0.4,-4.2 -1.2,-4.6 -1.2,-4.8 -0.4,-0.5 -2.5,-0.2 -3.1,0 0.5,0.4 1.4,3.5 1,4.9 -0.2,-0.4 -3.8,-4.5 -3.6,-5.3 0.2,-0.5 0.5,-1 1.7,-2.4 4.2,0.9 11.3,3.5 11.8,4.3 0.4,1 0.8,2.1 1.1,3.7 0.4,2.4 1.1,8.1 0.7,16.7 -0.4,9 -1.6,14 -1.4,13.8 1.3,-0.4 3.4,-2.4 3.6,-2.9 0.6,-1.5 0.8,-6.7 1,-11.5 C 59.5,28 59,22 58.8,19.7 58.1,14.1 57.7,12.6 57,11.4 Z M 24.8,48.8 c -1.3,0 -3.2,-0.2 -3.2,-0.2 l 3.2,-9.5 3,9.5 c 0,-0.1 -1.8,0.2 -3,0.2 z m 16.1,-0.3 c 0,0 -1.9,0.2 -3.2,0.2 -1.1,0 -3,-0.2 -3,-0.2 l 3,-9.5 z m -8.3,-7.3 v -3.7 h 2.8 L 31.2,49.3 27,37.6 h 2.8 v 2.6 c 0,0 0,0.2 0.1,0.2 0.4,0.2 0.5,0.2 0.5,0.2 z m 0.3,-19.3 h -4.8 c -0.4,-1.2 0,-1.5 1.1,-1.6 1.9,-0.1 3.6,-0.1 3.7,1.6 z m 13.7,-5.2 c 1.7,-0.2 1,2.9 0.5,4.2 -0.7,-1.5 -1.2,-2.4 -2.3,-3.8 0.6,-0.3 1.1,-0.3 1.8,-0.4 z" class="st0"/><path id="svg_7" fill="#fff" d="m 15.3,43.1 c 0.8,-1 3.8,-4 4.3,-5.7 0.5,-2 1,-6.8 1,-7.9 0,0 -3,2.1 -4.5,3.7 -0.7,0.7 -1.6,2 -1.6,2 -0.4,-1.7 0.1,-3.7 0.8,-4.8 1,-1.7 4.6,-4.8 5.1,-6.1 0.8,-2.1 0.7,-3.9 1.3,-6.1 -2.4,0.9 -5.4,2.7 -6.9,4.3 -0.1,-2.4 0.6,-4.2 2.2,-5.4 2.3,-1.8 5.4,-2.8 7.3,-3.4 1.7,-0.5 4.5,-1 5.8,-1.7 2.5,-1.2 4.9,-4.8 5.5,-6.6 -0.8,0 -3.8,-0.1 -6.7,1 -1.1,0.5 -1.6,1.5 -2,2.3 -0.5,0.7 -1,1.5 -1.4,2.1 -1.2,1.8 -2.6,2.7 -4.4,3.2 0,-0.1 1.2,-0.9 2,-2.7 0.7,-1.6 1.6,-4.6 1.6,-4.9 -1.6,0.2 -2.5,0.7 -4.2,1.3 -1.7,0.7 -2.3,1.5 -2.6,2.2 -1.2,1.8 -0.8,7 -3.2,8.9 0.1,-2.7 0.7,-5.6 -0.2,-8.9 -4.8,2 -5.8,3.7 -5.4,5.7 0.5,2.8 3.5,4 4.8,6.4 0.5,0.7 0.6,1.7 0.6,1.7 0.1,0 -1,1.3 -0.6,4 0,0 -1,-2 -1.9,-3.2 -1.4,-1.8 -4.2,-4.8 -4.2,-4.8 -0.6,7.5 0.4,9 0.7,9.6 1,1.6 4.4,4 5.2,5.6 0.4,0.7 0.5,1 0.5,1 0.1,0.2 -0.7,1.2 -0.6,2.6 0.1,0.5 0.2,1 0.4,1.7 0,0 -1.1,-1.6 -2.5,-3.2 -1.2,-1.5 -3.7,-3.3 -3.8,-3.3 -0.1,0.9 0.4,5 0.5,5.7 0.2,2.1 0.4,4 2.2,5.9 1.4,1.5 6.3,3.5 7.3,3.9 0,0 -0.2,-1 -0.7,-2.3 -0.9,-1.5 -1.7,-3.8 -1.7,-3.8 z" class="st0"/></g></g></svg>