<?xml version="1.0" encoding="UTF-8"?>
<svg width="710" height="539.72" version="1.1" viewBox="0 0 400.85 304.72" xmlns="http://www.w3.org/2000/svg"><g fill="none" stroke="#000" stroke-linecap="round" stroke-opacity=".99608" stroke-width="1.6937"><circle cx="263.67" cy="151.83" r="81.055"/><circle cx="139.2" cy="81.493" r="60.791"/><path d="m325.85 96.329c11.639-8.2951 19.982-20.426 23.566-34.261l19.616 5.081c-4.7783 18.447-15.903 34.622-31.422 45.682z"/><path d="m26.956 6.7492c1.9911 29.434 24.828 53.19 54.161 56.341l-2.1639 20.148c-39.111-4.2005-69.56-35.875-72.215-75.121z"/><path d="m302.91 223.88c7.1791 20.498 24.748 35.609 46.089 39.64l-3.7615 19.912c-28.455-5.3755-51.88-25.523-61.452-52.854z"/><path d="m199.64 202.16c-19.832 8.8549-33.433 27.617-35.68 49.219l-20.155-2.0966c2.9962-28.803 21.131-53.819 47.573-65.626z"/><path d="m228.64 227.29c-11.35 18.517-11.96 41.682-1.5986 60.77l-17.809 9.6669c-13.815-25.451-13.002-56.338 2.1314-81.027z"/><path d="m329.9 202.41c15.404 15.31 37.806 21.24 58.768 15.554l5.3044 19.557c-27.948 7.5804-57.818-0.32524-78.357-20.739z"/></g></svg>
