<?xml version="1.0" encoding="UTF-8"?>
<svg width="700" height="84.818" version="1.1" viewBox="0 0 700 84.818" xmlns="http://www.w3.org/2000/svg"><path d="m688.19 20.696v6.9605h-1.0543v-6.9605h-2.5318v-1.0547h5.9062l0.21119 1.0547h-2.5305zm10.969 6.7493-0.63274-6.117-2.5318 6.117h-0.84309l-2.5318-6.117-0.42154 6.117h-1.0543l0.63274-7.8045h1.2655l2.5318 6.5394 2.531-6.5394h1.2655l0.63274 7.8045z" fill="#9cbe30" stroke-width=".42409"/><g transform="matrix(.42409 0 0 .42409 -.29559 .30534)" fill="#54524f"><path d="m337.42 140.59c-9.45 0-18.9-6.466-21.387-16.413-4.974 8.952-14.424 16.412-26.858 16.412-13.926 0-25.863-10.942-25.863-24.87 0-19.396 18.403-33.323 53.22-33.82l0.496-4.974c0.995-13.43-7.46-22.382-21.387-22.382-9.947 0-20.392 6.466-26.858 14.92-0.497 0.996-3.482-2.486-3.482-2.983 8.953-17.905 25.366-27.853 42.276-27.853 19.895 0 33.324 13.926 32.826 36.805l-1.492 38.795c-0.497 8.953 3.98 12.932 8.455 12.932 4.975 0 8.456-3.98 10.446-9.45 0.497-0.497 2.984 0.995 2.984 1.492-1.49 13.928-11.438 21.388-23.375 21.388zm-20.89-53.218c-11.936 1.492-19.396 4.974-24.37 9.45-3.98 3.98-5.968 8.953-5.968 13.926 0 8.953 6.466 15.42 14.424 15.42 4.975 0 9.45-2.488 12.435-4.975 0.995-0.995 2.487-2.984 2.487-4.974l0.994-28.846zm144.24 49.736c-7.46 0-19.895 0-26.36 0.498-0.996 0-0.498-4.974-0.498-4.974 10.942-1.492 12.434-2.487 12.434-23.874v-29.84c0-12.933-7.462-22.88-19.896-22.88-7.958 0-15.418 3.98-18.9 8.953-2.487 2.984-4.476 8.455-4.476 15.42v28.35c0 21.386 2.487 22.38 12.932 23.873 0.497 0 0.497 4.974-0.497 4.974-6.466-0.497-17.905-0.497-24.37-0.497-7.462 0-19.896 0-25.864 0.497-0.996 0-0.996-4.974-0.498-4.974 11.937-1.99 13.43-2.487 13.43-23.874v-36.31c0-21.386-2.488-22.878-15.42-24.868-0.994 0-0.994-4.974 0-4.974h37.8v21.884h0.498c8.455-15.916 21.387-24.868 36.805-24.868 17.905 0 31.832 13.43 31.832 36.805v32.33c0 21.387 1.99 22.382 13.926 23.874 0.995 0 0.995 4.974 0 4.974-4.974-0.497-16.414-0.497-22.88-0.497zm79.58 3.482c-29.842 0-49.24-22.88-49.24-50.234 0-28.35 19.397-51.726 51.23-51.726 14.423 0 22.38 4.974 26.857 4.974 2.487 0 3.98-1.492 4.974-3.98 0.497-0.994 5.968-0.994 5.968 0v35.814c0 0.995-5.968 0.995-5.968 0.497-7.958-16.413-18.9-30.34-31.832-30.34-16.413 0-24.87 16.91-24.87 39.79 0 24.868 12.435 41.282 30.838 41.282 11.937 0 24.868-8.455 30.837-17.905 0.995-0.995 4.476 0.995 4.476 1.99-6.465 16.91-23.873 29.84-43.27 29.84zm81.071-51.726c0 21.387 11.937 37.8 32.33 37.8 11.936 0 23.873-7.958 30.34-17.905 0.496-0.496 3.978 0.996 3.978 1.99-5.47 16.91-23.376 29.842-43.27 29.842-31.335 0-49.738-22.88-49.738-50.234 0-26.858 19.895-51.726 51.727-51.726 24.87 0 41.283 16.413 42.277 38.298v6.963h-67.642v4.973zm39.79-11.44v-6.963c0-15.916-7.462-24.37-16.912-24.37-11.937 0-20.89 12.433-22.88 31.333h39.79zm78.584 62.669c-15.42 0-28.847-3.98-33.324-6.963-0.995-0.497-1.99-12.932-1.99-26.36 0-0.996 5.97-0.996 5.97-0.498 7.957 17.408 19.894 26.858 31.83 26.858 10.446 0 17.906-5.47 17.906-13.926 0-9.947-11.44-14.424-23.874-19.895-14.424-5.968-30.837-12.93-30.837-31.333 0-14.424 12.433-29.345 35.81-29.345 9.947 0 16.413 3.98 20.89 3.98 2.487 0 3.98-1.493 5.47-4.477 0.498-0.995 5.97-0.995 5.97 0l0.496 32.826c0 0.996-5.968 0.498-5.968-0.496-7.46-14.424-17.408-25.366-28.35-25.366-10.445 0-15.42 6.963-15.42 12.434 0 9.45 11.44 13.926 23.377 18.9 14.424 5.97 31.334 13.43 31.334 32.33-1.492 18.4-16.413 31.333-39.292 31.333zm49.24-87.04c-1.492 0-1.99-3.98-0.497-4.974 10.446-9.45 27.854-24.868 37.304-34.815 0.995-0.995 3.98 0.497 3.98 0.995v29.345h33.82c0.995 0 0.995 9.45 0 9.45h-33.82v55.208c0 12.434 7.46 17.905 15.915 17.905 5.967 0 12.433-4.974 15.418-10.942 0.497-0.995 4.476 1.492 3.98 2.487-4.477 13.43-16.912 23.874-31.833 23.874-15.418 0-27.853-9.45-27.853-29.345v-58.193h-16.412v-0.995zm156.67 15.419c-2.985 0-10.446-8.953-15.917-8.953-2.487 0-5.47 1.493-7.958 3.98-4.476 4.476-7.46 13.43-7.46 21.387v23.874c0 21.388 3.48 22.383 14.423 23.875 0.497 0 0.995 4.974 0 4.974-6.466-0.498-19.397-0.498-26.36-0.498-7.462 0-19.896 0-26.362 0.497-0.995 0-0.497-4.975-0.497-4.975 11.936-1.99 13.428-2.487 13.428-23.874v-36.307c0-21.387-2.487-22.88-15.42-24.87-0.994 0-0.994-4.973 0-4.973h38.298v24.87h0.995c0.996-2.985 2.985-6.467 4.477-9.45 6.963-10.943 15.42-18.404 24.37-18.404 8.456 0 15.42 6.466 15.42 13.43 0.996 7.46-8.95 15.418-11.438 15.418zm115.89-16.414c-4.476 4.477-6.963 11.938-13.43 29.346l-32.328 82.563c-10.942 29.344-21.387 35.312-35.81 35.312-7.96 0-16.912-4.476-16.912-6.466-0.497-3.98 4.974-18.403 7.958-18.403 0.995 0 12.932 5.47 18.9 5.47 8.455 0 13.926-5.47 18.403-17.407l5.968-15.916c-2.487-7.958-25.863-60.182-28.35-67.145-5.968-13.926-9.947-24.87-13.926-28.35-2.488-2.487-4.975-3.482-11.938-4.476-0.995 0-0.995-4.975 0-4.975 6.466 0.497 19.895 0.497 26.858 0.497s20.392-0.497 26.858-0.995c0.995 0 0.995 4.974 0 4.974-14.424 1.99-13.43 6.964-5.47 26.86l17.904 41.778 13.43-36.308c4.973-12.434 7.46-19.895 7.46-24.37 0-5.472-3.482-7.462-13.43-7.96-0.994 0-0.994-5.47 0-5.47 6.964 0.497 15.917 0.995 21.885 0.995 4.476 0 8.953-0.497 17.905-0.995 0.497 0 0.995 5.47 0.497 5.47-6.465 1.992-9.45 3.484-12.434 5.97z"/></g><path d="m50.2 41.367c-0.21077 0.21077-8.4372 11.179-27.843 8.226-15.608-2.5305-21.304-10.967-22.358-11.179 1.265-1.6866 13.077-11.179 26.787-10.968s23.413 8.0152 23.413 8.0152h8.648c-6.9605-2.1094-15.398-5.9058-19.194-14.343-3.3757-7.8049-2.7426-12.445-4.2188-18.984 0 0 15.608-1.2655 27.631 6.5394 10.968 7.1713 17.085 26.155 17.296 26.787h6.7498l-1.4771-33.749 8.4372 0.21119c-1.4767 8.8592 0.42197 72.137 0 72.137-0.84393 0.2112-8.0152 0.63316-8.648-1.0543 0 0 1.6879-31.006 1.8982-31.639h-6.5386c0 0.42197-0.63274 17.929-13.921 27.209-13.288 9.2807-32.483 6.5394-32.483 6.5394 2.3198-3.5856 0-7.3825 6.7498-17.718 7.8045-11.812 18.14-16.03 17.929-16.03h-8.8592zm-36.069-4.2188c1.4767 0.21077 6.5386 6.7498 15.608 7.5933 9.9134 1.0551 13.288-4.0076 13.5-4.0076 0-0.63189-8.0152-9.2803-16.874-9.2803-6.117 0-12.234 5.6955-12.234 5.6955zm57.794 5.4843c-2.3206 0-11.812 0.84393-18.14 8.648-6.5386 8.226-6.3274 14.765-7.8045 16.242 1.2655 0.42197 14.555 1.6879 20.249-6.9605 5.4843-8.0152 5.6955-16.452 5.6955-17.929zm-8.8592-26.999c-7.3825-8.0152-14.765-6.7498-16.03-6.5394 0.63274 0.21119 1.2655 14.133 9.0699 21.515 5.2731 4.8515 16.03 3.1637 16.03 3.1637s-1.8986-10.546-9.0699-18.139z" fill="#9cbe30" stroke-width=".42409"/><path d="m469.84 4.8761h3.7383v50.295h24.7v3.2506h-28.439v-53.546zm40.227 5.1187c-0.92111 0-1.693-0.29686-2.3147-0.89313-0.6234-0.59584-0.93426-1.3528-0.93426-2.2756 0-1.0284 0.31043-1.8278 0.93384-2.3969 0.62213-0.56828 1.3936-0.85241 2.3155-0.85241 0.92027 0 1.6921 0.28414 2.3155 0.85241 0.62256 0.56828 0.93468 1.369 0.93468 2.3969 0 0.92196-0.31212 1.6794-0.93426 2.2756-0.62425 0.59627-1.3961 0.89313-2.3164 0.89313zm-1.8681 9.4257h3.575v39.001h-3.575v-39.002zm14.347-19.42h3.575v16.901l-0.16285 7.6378c2.0046-1.6785 4.1446-3.1145 6.4198-4.3066 2.2756-1.1917 4.6319-1.7875 7.0682-1.7875 5.201 0 9.1009 1.8015 11.701 5.4029 2.5996 3.603 3.8995 8.4368 3.8995 14.504 0 3.3036-0.46055 6.2565-1.3808 8.8558-0.92154 2.6005-2.1806 4.8083-3.7786 6.623-1.598 1.8151-3.441 3.1976-5.5258 4.1442s-4.2655 1.422-6.5394 1.422c-1.8969 0-3.8605-0.42154-5.8914-1.2595-2.0314-0.83969-3.9686-1.9635-5.81-3.3728h-0.16285l-0.40585 3.6565h-3.0068v-58.421zm3.575 51.189c2.1662 1.8431 4.2523 3.1433 6.2565 3.9007 2.003 0.75911 3.7638 1.1378 5.282 1.1378 1.9491 0 3.7638-0.43384 5.4432-1.3002 1.6794-0.86598 3.1149-2.0844 4.3066-3.6556 1.1917-1.5708 2.126-3.4533 2.8041-5.6488 0.67557-2.1934 1.0148-4.617 1.0148-7.2714 0-2.3834-0.23028-4.6035-0.68999-6.6624-0.46141-2.0577-1.1781-3.8316-2.1535-5.3223-0.9754-1.4885-2.2485-2.6531-3.8189-3.4936-1.5717-0.83884-3.4669-1.2595-5.687-1.2595-1.9508 0-3.9822 0.55555-6.095 1.6658-2.112 1.1111-4.3333 2.6955-6.6624 4.7532v23.157zm38.332-31.769h3.0874l0.32485 7.2307h0.24385c1.3002-2.4368 2.8846-4.4135 4.7532-5.9308 1.8685-1.5165 3.9673-2.2752 6.2968-2.2752 0.75827 0 1.4351 0.05428 2.0314 0.16242 0.59627 0.10899 1.2197 0.32527 1.8702 0.65012l-0.81297 3.2506c-0.65012-0.27057-1.2197-0.44741-1.7061-0.52841-0.4877-0.08185-1.1111-0.12214-1.8702-0.12214-1.7337 0-3.5615 0.7447-5.4834 2.2349-1.9237 1.4898-3.6438 4.0755-5.1603 7.7587v26.57h-3.575v-39.001zm20.164 29.25c0-4.279 2.0314-7.5559 6.0933-9.8316 4.0636-2.2756 10.428-3.8995 19.095-4.8749 0.0539-1.4631-0.0411-2.9389-0.28414-4.4287-0.24427-1.4885-0.70525-2.8159-1.3825-3.9813-0.67641-1.1645-1.6242-2.1128-2.8435-2.8443-1.2188-0.73155-2.7765-1.0967-4.6717-1.0967-2.6548 0-5.0653 0.51526-7.2324 1.5437-2.1671 1.0293-3.8995 2.0314-5.1993 3.0068l-1.6259-2.6823c0.70398-0.4877 1.5577-1.0284 2.5598-1.6242 1.0021-0.59626 2.1128-1.1382 3.3312-1.6259 1.2197-0.4877 2.5598-0.90627 4.0224-1.2595 1.4631-0.35114 2.9779-0.52799 4.5496-0.52799 2.3291 0 4.279 0.39355 5.8498 1.1781 1.5717 0.78626 2.8456 1.8566 3.8189 3.2103 0.9754 1.3541 1.6658 2.9389 2.0717 4.7532 0.40712 1.8151 0.60899 3.7773 0.60899 5.8906v24.945h-3.0059l-0.40585-5.0381h-0.16243c-2.0042 1.5725-4.1582 2.9661-6.4588 4.1845-2.3041 1.2184-4.754 1.8287-7.3537 1.8287-1.5721 0-3.0348-0.21756-4.3876-0.65012-1.3554-0.43384-2.5598-1.0827-3.6166-1.9508-1.056-0.86598-1.8829-1.9771-2.4775-3.3308-0.59626-1.352-0.89312-2.9508-0.89312-4.7934zm3.737-0.16285c0 2.8168 0.81255 4.8219 2.4385 6.0127 1.6251 1.1934 3.5454 1.7884 5.7676 1.7884 2.2756 0 4.441-0.54156 6.5004-1.6255 2.0594-1.0827 4.3066-2.6531 6.7447-4.7124v-13.244c-4.0097 0.4877-7.3808 1.0848-10.116 1.7875-2.7354 0.70526-4.9436 1.5437-6.6225 2.5191-1.679 0.9754-2.8838 2.0857-3.6153 3.3308-0.73155 1.2468-1.0975 2.6293-1.0975 4.1446zm35.398-29.088h3.0874l0.32485 7.2307h0.24427c1.3002-2.4368 2.8846-4.4135 4.7532-5.9308 1.8685-1.5165 3.9673-2.2752 6.2968-2.2752 0.75742 0 1.4347 0.05428 2.0314 0.16242 0.59584 0.10899 1.2192 0.32527 1.8694 0.65012l-0.81255 3.2506c-0.65012-0.27057-1.2197-0.44741-1.7061-0.52841-0.48769-0.08185-1.1111-0.12214-1.8702-0.12214-1.7345 0-3.5623 0.7447-5.4834 2.2349-1.9241 1.4898-3.6442 4.0755-5.1611 7.7587v26.57h-3.5742v-39.001zm26.664 53.261c0.54155 0.13444 1.1094 0.20356 1.7074 0.20356 2.4372 0 4.4682-0.9754 6.0941-2.9262 1.6251-1.9499 2.9253-4.4147 3.9003-7.3931l1.056-3.413-16.007-39.732h3.8995l9.4257 24.538c0.595 1.6259 1.2595 3.4126 1.9902 5.363 0.73197 1.9508 1.4758 3.7922 2.2349 5.525h0.32485c0.595-1.7328 1.2057-3.575 1.8287-5.525 0.62214-1.9508 1.2044-3.737 1.7472-5.3626l8.3685-24.538h3.6565l-15.438 43.876c-0.54113 1.6251-1.2057 3.2095-1.9902 4.7527-0.78583 1.5437-1.7074 2.9262-2.7633 4.1442-1.056 1.2184-2.2756 2.1938-3.6565 2.9262-1.3808 0.73028-2.9389 1.0963-4.6713 1.0963-1.4631 0-2.7913-0.27311-3.9813-0.81297l0.81255-3.1688c0.43256 0.16285 0.92026 0.31128 1.4618 0.44699z" fill="#9cbe3b" stroke-width=".42409"/></svg>
